<svg width="176" height="52" viewBox="0 0 176 52" fill="none" xmlns="http://www.w3.org/2000/svg">
<path d="M18.6041 48.4566V35.7412L12.2593 32.8072V45.5227L18.6041 48.4566ZM55.3872 14.3898L40.4013 0L22.2326 8.39231L36.7831 22.3622V38.4678L30.8634 41.2047V24.8659L16.4995 11.0411L0 18.6663V39.8725L6.34478 42.8065V22.7302L15.2295 18.6248L24.5238 27.5718V51.1314L43.1279 42.5317V19.6615L33.336 10.2584L39.1365 7.57847L49.0476 17.1008V39.8207L55.3924 36.8919V14.4001L55.3872 14.3898Z" fill="#C97A41"/>
<path d="M161.937 14.9241H166.156V22.2642C166.566 21.6836 167.12 21.2533 167.815 20.9682C168.51 20.6676 169.298 20.5173 170.179 20.5173C171.324 20.5173 172.335 20.7609 173.216 21.2482C174.098 21.7354 174.782 22.4197 175.269 23.3009C175.756 24.1821 176 25.1929 176 26.3385V36.2081H171.781V27.2353C171.781 26.354 171.516 25.6491 170.993 25.1255C170.485 24.5812 169.811 24.3117 168.966 24.3117C168.121 24.3117 167.437 24.5812 166.913 25.1255C166.405 25.6491 166.156 26.354 166.156 27.2353V36.2081H161.937V14.9189V14.9241Z" fill="#F5F2EB"/>
<path d="M153.43 36.5185C151.818 36.5185 150.403 36.1504 149.185 35.4195C147.988 34.6679 147.153 33.6467 146.681 32.356L149.719 30.7802C150.134 31.5681 150.668 32.185 151.321 32.6359C151.979 33.0662 152.71 33.2839 153.513 33.2839C154.13 33.2839 154.612 33.1595 154.949 32.9159C155.286 32.6722 155.457 32.3353 155.457 31.905C155.457 31.5681 155.328 31.2778 155.063 31.0342C154.799 30.7906 154.41 30.6195 153.881 30.5262L151.264 30.0182C149.989 29.7176 148.988 29.1577 148.257 28.3335C147.547 27.4886 147.189 26.4985 147.189 25.3529C147.189 24.3991 147.433 23.5542 147.92 22.8233C148.428 22.0924 149.128 21.5274 150.03 21.1335C150.948 20.7188 152 20.5166 153.182 20.5166C154.607 20.5166 155.862 20.8535 156.95 21.5274C158.039 22.1857 158.837 23.1136 159.34 24.311L156.276 25.8868C156.033 25.2855 155.618 24.8087 155.037 24.451C154.457 24.0778 153.809 23.886 153.099 23.886C152.518 23.886 152.067 24 151.751 24.2229C151.43 24.4458 151.274 24.7568 151.274 25.1508C151.274 25.467 151.404 25.7521 151.668 25.9957C151.948 26.2186 152.389 26.4104 152.99 26.5555L155.437 27.0635C156.748 27.4212 157.764 28.0018 158.474 28.8052C159.184 29.5931 159.542 30.5469 159.542 31.6718C159.542 32.6256 159.288 33.4705 158.78 34.2014C158.272 34.9323 157.562 35.5025 156.644 35.9172C155.727 36.3111 154.659 36.5081 153.436 36.5081L153.43 36.5185Z" fill="#F5F2EB"/>
<path d="M136.62 20.8592H140.559V23.166C140.933 22.264 141.467 21.6264 142.161 21.2532C142.856 20.88 143.711 20.6934 144.722 20.6934H145.624V24.3478H144.302C143.25 24.3478 142.41 24.664 141.772 25.3016C141.156 25.9392 140.845 26.8204 140.845 27.9453V36.2132H136.625V20.8592H136.62Z" fill="#F5F2EB"/>
<path d="M124.977 36.55C123.308 36.55 121.997 36.156 121.038 35.3681C120.084 34.5802 119.602 33.4916 119.602 32.1076C119.602 30.7961 120.053 29.7283 120.95 28.9041C121.867 28.0592 123.236 27.489 125.055 27.1883L129.301 26.5144V26.0946C129.301 25.514 129.067 25.0267 128.596 24.6328C128.129 24.2388 127.507 24.0418 126.74 24.0418C125.988 24.0418 125.325 24.2492 124.744 24.6587C124.179 25.0527 123.77 25.5969 123.505 26.2915L120.131 24.6898C120.582 23.4146 121.416 22.4038 122.634 21.6522C123.873 20.9006 125.304 20.5273 126.937 20.5273C128.212 20.5273 129.347 20.7606 130.337 21.2323C131.348 21.6988 132.126 22.3572 132.67 23.2021C133.235 24.047 133.515 25.0112 133.515 26.0998V36.2234H129.575V34.7875C128.974 35.3888 128.3 35.8398 127.549 36.1353C126.797 36.4152 125.936 36.5551 124.962 36.5551L124.977 36.55ZM123.967 31.9676C123.967 32.4342 124.133 32.8022 124.475 33.0666C124.832 33.3309 125.278 33.4605 125.822 33.4605C126.854 33.4605 127.689 33.1443 128.326 32.5067C128.984 31.8484 129.311 31.0449 129.311 30.086V29.6091L125.822 30.2259C125.206 30.34 124.734 30.5369 124.418 30.8169C124.117 31.0968 123.967 31.4804 123.967 31.9676Z" fill="#F5F2EB"/>
<path d="M103.393 14.9241H107.612V22.2642C108.027 21.6836 108.576 21.2533 109.271 20.9682C109.966 20.6676 110.754 20.5173 111.635 20.5173C112.78 20.5173 113.791 20.7609 114.672 21.2482C115.554 21.7354 116.238 22.4197 116.725 23.3009C117.212 24.1821 117.456 25.1929 117.456 26.3385V36.2081H113.237V27.2353C113.237 26.354 112.972 25.6491 112.449 25.1255C111.941 24.5812 111.267 24.3117 110.427 24.3117C109.582 24.3117 108.898 24.5812 108.374 25.1255C107.866 25.6491 107.612 26.354 107.612 27.2353V36.2081H103.393V14.9189V14.9241Z" fill="#F5F2EB"/>
<path d="M91.7504 36.55C90.0813 36.55 88.7698 36.156 87.8109 35.3681C86.8571 34.5802 86.375 33.4916 86.375 32.1076C86.375 30.7961 86.826 29.7283 87.7227 28.9041C88.6402 28.0592 90.0087 27.489 91.8282 27.1883L96.0736 26.5144V26.0946C96.0736 25.514 95.8403 25.0267 95.3686 24.6328C94.9021 24.2388 94.28 24.0418 93.5129 24.0418C92.7612 24.0418 92.0977 24.2492 91.5172 24.6587C90.9522 25.0527 90.5426 25.5969 90.2783 26.2915L86.9037 24.6898C87.3547 23.4146 88.1893 22.4038 89.4074 21.6522C90.6463 20.9006 92.077 20.5273 93.7098 20.5273C94.985 20.5273 96.1202 20.7606 97.1103 21.2323C98.1211 21.6988 98.8987 22.3572 99.4429 23.2021C100.008 24.047 100.288 25.0112 100.288 26.0998V36.2234H96.3483V34.7875C95.747 35.3888 95.0731 35.8398 94.3215 36.1353C93.5699 36.4152 92.7094 36.5551 91.7349 36.5551L91.7504 36.55ZM90.7396 31.9676C90.7396 32.4342 90.9107 32.8022 91.2476 33.0666C91.6053 33.3309 92.0511 33.4605 92.5954 33.4605C93.6269 33.4605 94.4615 33.1443 95.0991 32.5067C95.7574 31.8484 96.084 31.0449 96.084 30.086V29.6091L92.5954 30.2259C91.9785 30.34 91.5068 30.5369 91.1906 30.8169C90.8899 31.0968 90.7396 31.4804 90.7396 31.9676Z" fill="#F5F2EB"/>
<path d="M76.718 36.5499C74.9556 36.5499 73.4575 36.2234 72.2186 35.5651C70.9797 34.9067 70.0363 34.0929 69.378 33.1184C68.7248 32.1231 68.3205 31.1227 68.1702 30.1119L72.3015 29.07C72.7888 31.3404 74.2869 32.4704 76.8009 32.4704C77.6822 32.4704 78.3768 32.2735 78.8796 31.8795C79.4031 31.4855 79.6675 30.9724 79.6675 30.3348C79.6675 29.7905 79.4705 29.3343 79.0765 28.9559C78.7033 28.5827 78.1746 28.3287 77.5007 28.1991L74.5771 27.6652C72.8147 27.349 71.4255 26.6233 70.4147 25.4984C69.4194 24.3736 68.927 22.9585 68.927 21.253C68.927 20.1075 69.2639 19.05 69.9378 18.0755C70.6324 17.101 71.5292 16.3338 72.6385 15.7688C73.7633 15.2089 74.9452 14.9238 76.1789 14.9238C77.848 14.9238 79.2372 15.2037 80.3414 15.7688C81.4662 16.313 82.3215 16.9973 82.9021 17.8215C83.4826 18.6301 83.8559 19.4595 84.0269 20.3252L79.9215 21.5641C79.5275 20.5895 79.061 19.926 78.5167 19.5684C77.9724 19.1951 77.1949 19.0085 76.1841 19.0085C75.6605 19.0085 75.1888 19.1226 74.7793 19.3455C74.3854 19.5528 74.0743 19.8224 73.8514 20.1593C73.6285 20.4755 73.5145 20.8073 73.5145 21.1442C73.5145 21.6885 73.6804 22.1394 74.0225 22.4919C74.3594 22.8496 74.8571 23.0932 75.5102 23.2228L78.4079 23.8138C80.2999 24.2077 81.7617 24.9645 82.7932 26.0894C83.8248 27.2142 84.3379 28.5568 84.3379 30.1119C84.3379 31.1797 84.0269 32.2112 83.4101 33.2065C82.8088 34.2018 81.9275 35.0052 80.7664 35.6273C79.6208 36.2441 78.2731 36.5551 76.718 36.5551V36.5499Z" fill="#F5F2EB"/>
</svg>
