<svg width="176" height="52" viewBox="0 0 176 52" fill="none" xmlns="http://www.w3.org/2000/svg">
<path d="M18.6041 48.4566V35.7412L12.2593 32.8072V45.5227L18.6041 48.4566ZM55.3872 14.3898L40.4013 0L22.2326 8.39231L36.7831 22.3622V38.4678L30.8634 41.2047V24.8659L16.4995 11.0411L0 18.6663V39.8725L6.34478 42.8065V22.7302L15.2295 18.6248L24.5238 27.5718V51.1314L43.1279 42.5317V19.6615L33.336 10.2584L39.1365 7.57847L49.0476 17.1008V39.8207L55.3924 36.8919V14.4001L55.3872 14.3898Z" fill="#C97A41"/>
<path d="M161.937 14.9237H166.156V22.2637C166.566 21.6831 167.12 21.2529 167.815 20.9678C168.51 20.6671 169.298 20.5168 170.179 20.5168C171.324 20.5168 172.335 20.7605 173.216 21.2477C174.098 21.735 174.782 22.4192 175.269 23.3004C175.756 24.1816 176 25.1925 176 26.338V36.2077H171.781V27.2348C171.781 26.3536 171.516 25.6486 170.993 25.1251C170.485 24.5808 169.811 24.3112 168.966 24.3112C168.121 24.3112 167.437 24.5808 166.913 25.1251C166.405 25.6486 166.156 26.3536 166.156 27.2348V36.2077H161.937V14.9185V14.9237Z" fill="#0F1B26"/>
<path d="M153.43 36.5187C151.818 36.5187 150.403 36.1507 149.185 35.4198C147.988 34.6682 147.153 33.647 146.681 32.3563L149.719 30.7804C150.134 31.5683 150.668 32.1852 151.321 32.6362C151.979 33.0664 152.71 33.2841 153.513 33.2841C154.13 33.2841 154.612 33.1597 154.949 32.9161C155.286 32.6725 155.457 32.3355 155.457 31.9053C155.457 31.5683 155.328 31.2781 155.063 31.0344C154.799 30.7908 154.41 30.6197 153.881 30.5264L151.264 30.0184C149.989 29.7178 148.988 29.1579 148.257 28.3338C147.547 27.4888 147.189 26.4987 147.189 25.3532C147.189 24.3994 147.433 23.5544 147.92 22.8235C148.428 22.0927 149.128 21.5276 150.03 21.1337C150.948 20.719 152 20.5168 153.182 20.5168C154.607 20.5168 155.862 20.8538 156.95 21.5276C158.039 22.186 158.837 23.1138 159.34 24.3113L156.276 25.8871C156.033 25.2858 155.618 24.8089 155.037 24.4512C154.457 24.078 153.809 23.8862 153.099 23.8862C152.518 23.8862 152.067 24.0002 151.751 24.2231C151.43 24.446 151.274 24.757 151.274 25.151C151.274 25.4672 151.404 25.7523 151.668 25.9959C151.948 26.2188 152.389 26.4106 152.99 26.5558L155.437 27.0638C156.748 27.4214 157.764 28.002 158.474 28.8055C159.184 29.5934 159.542 30.5472 159.542 31.672C159.542 32.6258 159.288 33.4707 158.78 34.2016C158.272 34.9325 157.562 35.5027 156.644 35.9174C155.727 36.3114 154.659 36.5083 153.436 36.5083L153.43 36.5187Z" fill="#0F1B26"/>
<path d="M136.62 20.859H140.559V23.1657C140.933 22.2637 141.467 21.6261 142.161 21.2529C142.856 20.8797 143.711 20.6931 144.722 20.6931H145.624V24.3475H144.302C143.25 24.3475 142.41 24.6637 141.772 25.3013C141.156 25.9389 140.845 26.8201 140.845 27.945V36.2129H136.625V20.859H136.62Z" fill="#0F1B26"/>
<path d="M124.977 36.5498C123.308 36.5498 121.997 36.1559 121.038 35.3679C120.084 34.58 119.602 33.4915 119.602 32.1074C119.602 30.796 120.053 29.7282 120.95 28.904C121.867 28.059 123.236 27.4888 125.055 27.1882L129.301 26.5143V26.0944C129.301 25.5139 129.067 25.0266 128.596 24.6326C128.129 24.2387 127.507 24.0417 126.74 24.0417C125.988 24.0417 125.325 24.249 124.744 24.6586C124.179 25.0525 123.77 25.5968 123.505 26.2914L120.131 24.6897C120.582 23.4145 121.416 22.4037 122.634 21.652C123.873 20.9004 125.304 20.5272 126.937 20.5272C128.212 20.5272 129.347 20.7605 130.337 21.2322C131.348 21.6987 132.126 22.357 132.67 23.202C133.235 24.0469 133.515 25.011 133.515 26.0996V36.2232H129.575V34.7874C128.974 35.3887 128.3 35.8397 127.549 36.1351C126.797 36.415 125.936 36.555 124.962 36.555L124.977 36.5498ZM123.967 31.9675C123.967 32.434 124.133 32.802 124.475 33.0664C124.832 33.3308 125.278 33.4604 125.822 33.4604C126.854 33.4604 127.689 33.1442 128.326 32.5066C128.984 31.8483 129.311 31.0448 129.311 30.0858V29.6089L125.822 30.2258C125.206 30.3398 124.734 30.5368 124.418 30.8167C124.117 31.0966 123.967 31.4802 123.967 31.9675Z" fill="#0F1B26"/>
<path d="M103.393 14.9237H107.612V22.2637C108.027 21.6831 108.576 21.2529 109.271 20.9678C109.966 20.6671 110.754 20.5168 111.635 20.5168C112.78 20.5168 113.791 20.7605 114.672 21.2477C115.554 21.735 116.238 22.4192 116.725 23.3004C117.212 24.1816 117.456 25.1925 117.456 26.338V36.2077H113.237V27.2348C113.237 26.3536 112.972 25.6486 112.449 25.1251C111.941 24.5808 111.267 24.3112 110.427 24.3112C109.582 24.3112 108.898 24.5808 108.374 25.1251C107.866 25.6486 107.612 26.3536 107.612 27.2348V36.2077H103.393V14.9185V14.9237Z" fill="#0F1B26"/>
<path d="M91.7504 36.5498C90.0813 36.5498 88.7698 36.1559 87.8109 35.3679C86.8571 34.58 86.375 33.4915 86.375 32.1074C86.375 30.796 86.826 29.7282 87.7227 28.904C88.6402 28.059 90.0087 27.4888 91.8282 27.1882L96.0736 26.5143V26.0944C96.0736 25.5139 95.8403 25.0266 95.3686 24.6326C94.9021 24.2387 94.28 24.0417 93.5129 24.0417C92.7612 24.0417 92.0977 24.249 91.5172 24.6586C90.9522 25.0525 90.5426 25.5968 90.2783 26.2914L86.9037 24.6897C87.3547 23.4145 88.1893 22.4037 89.4074 21.652C90.6463 20.9004 92.077 20.5272 93.7098 20.5272C94.985 20.5272 96.1202 20.7605 97.1103 21.2322C98.1211 21.6987 98.8987 22.357 99.4429 23.202C100.008 24.0469 100.288 25.011 100.288 26.0996V36.2232H96.3483V34.7874C95.747 35.3887 95.0731 35.8397 94.3215 36.1351C93.5699 36.415 92.7094 36.555 91.7349 36.555L91.7504 36.5498ZM90.7396 31.9675C90.7396 32.434 90.9107 32.802 91.2476 33.0664C91.6053 33.3308 92.0511 33.4604 92.5954 33.4604C93.6269 33.4604 94.4615 33.1442 95.0991 32.5066C95.7574 31.8483 96.084 31.0448 96.084 30.0858V29.6089L92.5954 30.2258C91.9785 30.3398 91.5068 30.5368 91.1906 30.8167C90.8899 31.0966 90.7396 31.4802 90.7396 31.9675Z" fill="#0F1B26"/>
<path d="M76.718 36.5498C74.9556 36.5498 73.4575 36.2232 72.2186 35.5649C70.9797 34.9066 70.0363 34.0928 69.378 33.1182C68.7248 32.123 68.3205 31.1225 68.1702 30.1117L72.3015 29.0698C72.7888 31.3403 74.2869 32.4703 76.8009 32.4703C77.6822 32.4703 78.3768 32.2733 78.8796 31.8794C79.4031 31.4854 79.6675 30.9722 79.6675 30.3346C79.6675 29.7903 79.4705 29.3342 79.0765 28.9558C78.7033 28.5826 78.1746 28.3286 77.5007 28.199L74.5771 27.6651C72.8147 27.3489 71.4255 26.6231 70.4147 25.4983C69.4194 24.3734 68.927 22.9583 68.927 21.2529C68.927 20.1073 69.2639 19.0499 69.9378 18.0753C70.6324 17.1008 71.5292 16.3336 72.6385 15.7686C73.7633 15.2088 74.9452 14.9237 76.1789 14.9237C77.848 14.9237 79.2372 15.2036 80.3414 15.7686C81.4662 16.3129 82.3215 16.9971 82.9021 17.8213C83.4826 18.63 83.8559 19.4594 84.0269 20.325L79.9215 21.5639C79.5275 20.5894 79.061 19.9259 78.5167 19.5682C77.9724 19.195 77.1949 19.0084 76.1841 19.0084C75.6605 19.0084 75.1888 19.1224 74.7793 19.3453C74.3854 19.5527 74.0743 19.8222 73.8514 20.1592C73.6285 20.4754 73.5145 20.8071 73.5145 21.144C73.5145 21.6883 73.6804 22.1393 74.0225 22.4918C74.3594 22.8495 74.8571 23.0931 75.5102 23.2227L78.4079 23.8136C80.2999 24.2076 81.7617 24.9644 82.7932 26.0892C83.8248 27.2141 84.3379 28.5566 84.3379 30.1117C84.3379 31.1796 84.0269 32.2111 83.4101 33.2064C82.8088 34.2016 81.9275 35.0051 80.7664 35.6271C79.6208 36.244 78.2731 36.555 76.718 36.555V36.5498Z" fill="#0F1B26"/>
</svg>
